# xmcd
#
# Track frame offsets:
#	150
#	10715
#	19807
#	32600
#	61622
#	74632
#	90365
#	111420
#	128645
#	143655
#	155865
#	171652
#	194085
#
# Disc length: 2809
#
# Revision: 2
# Processed by: cddbd v1.5.1PL0 Copyright (c) Steve Scherf et al.
# Submitted via: audiograbber 1.82.02
# Normalized: r1:DSETVAR1,TSWAP
#
DISCID=b40af70d
DTITLE=Various Artist - Hear No Evil
DYEAR=1900
DGENRE=
TTITLE0=Cat Stevens - I Love My Dog
TTITLE1=Tom Jones - It's Not Unusual
TTITLE2=The Police - Can't Stand Losing You
TTITLE3=Tears For Fears - Woman In Chains
TTITLE4=The Carpenters - Please Mr Postman
TTITLE5=Pepa - Push It - Salt-N
TTITLE6=New Order - Confusion
TTITLE7=Marvin Gaye - What's Going On
TTITLE8=Joan Armatrading - Rosie
TTITLE9=Joe Jackson - Jumpin' Jive
TTITLE10=Bananarama - Love In The First Degree
TTITLE11=The Moody Blues - Your Wildest Dreams
TTITLE12=Status Quo - Caroline
EXTD=
EXTT0=
EXTT1=
EXTT2=
EXTT3=
EXTT4=
EXTT5=
EXTT6=
EXTT7=
EXTT8=
EXTT9=
EXTT10=
EXTT11=
EXTT12=
PLAYORDER=
